<svg width="24" height="24" viewBox="0 0 24 24" fill="none" xmlns="http://www.w3.org/2000/svg">
<path d="M10.1035 0.5C15.3979 0.500258 19.7061 4.80904 19.7061 10.1035L19.6982 10.4912C19.6218 12.4264 18.9588 14.2962 17.792 15.8496L17.5312 16.1973L23.2666 21.9326C23.4229 22.1117 23.5067 22.3432 23.5 22.5811C23.4932 22.8225 23.3935 23.0518 23.2227 23.2227C23.0518 23.3935 22.8225 23.4932 22.5811 23.5C22.3437 23.5066 22.1125 23.4233 21.9336 23.2676L16.1973 17.5312L15.8496 17.792C14.1927 19.0365 12.1758 19.7083 10.1035 19.7061C4.80904 19.7061 0.500258 15.3979 0.5 10.1035C0.5 4.80888 4.80888 0.5 10.1035 0.5ZM11.6084 2.53516C10.1117 2.23744 8.56029 2.38972 7.15039 2.97363C5.74039 3.55767 4.5354 4.54744 3.6875 5.81641C2.83963 7.08536 2.38672 8.57737 2.38672 10.1035L2.39648 10.4863C2.49325 12.3925 3.29341 14.2006 4.64941 15.5566C6.09589 17.0031 8.05692 17.8169 10.1025 17.8193H10.1035C11.6295 17.8192 13.1208 17.3663 14.3896 16.5186C15.6586 15.6707 16.6484 14.4657 17.2324 13.0557C17.8163 11.6458 17.9686 10.0944 17.6709 8.59766C17.3732 7.10083 16.6387 5.72564 15.5596 4.64648C14.4804 3.56733 13.1052 2.8329 11.6084 2.53516Z" fill="#5B6167" stroke="#5B6167"/>
</svg>
