<svg width="12" height="21" viewBox="0 0 12 21" fill="none" xmlns="http://www.w3.org/2000/svg">
<path d="M9.51152 12.9284C10.8859 12.9284 12 11.8443 12 10.507C12 9.16964 10.8859 8.08551 9.51152 8.08551C8.13717 8.08551 7.02304 9.16964 7.02304 10.507C7.02304 11.8443 8.13717 12.9284 9.51152 12.9284Z" fill="black"/>
<path d="M9.51152 21C10.8859 21 12 19.9159 12 18.5785C12 17.2412 10.8859 16.1571 9.51152 16.1571C8.13717 16.1571 7.02304 17.2412 7.02304 18.5785C7.02304 19.9159 8.13717 21 9.51152 21Z" fill="black"/>
<path d="M9.51152 4.85689C10.8859 4.85689 12 3.77276 12 2.43542C12 1.09808 10.8859 0.0139543 9.51152 0.0139543C8.13717 0.0139543 7.02304 1.09808 7.02304 2.43542C7.02304 3.77276 8.13717 4.85689 9.51152 4.85689Z" fill="black"/>
<path d="M2.48848 12.9145C3.86283 12.9145 4.97696 11.8304 4.97696 10.493C4.97696 9.15568 3.86283 8.07156 2.48848 8.07156C1.11413 8.07156 0 9.15568 0 10.493C0 11.8304 1.11413 12.9145 2.48848 12.9145Z" fill="black"/>
<path d="M2.48848 20.986C3.86283 20.986 4.97696 19.9019 4.97696 18.5646C4.97696 17.2272 3.86283 16.1431 2.48848 16.1431C1.11413 16.1431 0 17.2272 0 18.5646C0 19.9019 1.11413 20.986 2.48848 20.986Z" fill="black"/>
<path d="M2.48848 4.84293C3.86283 4.84293 4.97696 3.75881 4.97696 2.42147C4.97696 1.08413 3.86283 0 2.48848 0C1.11413 0 0 1.08413 0 2.42147C0 3.75881 1.11413 4.84293 2.48848 4.84293Z" fill="black"/>
</svg>
